<svg width="19" height="19" viewBox="0 0 19 19" fill="none" xmlns="http://www.w3.org/2000/svg">
<rect x="2" y="2" width="16" height="16" rx="8" fill="#261A00"/>
<path d="M9.5 19C12.0196 19 14.4359 17.9991 16.2175 16.2175C17.9991 14.4359 19 12.0196 19 9.5C19 6.98044 17.9991 4.56408 16.2175 2.78249C14.4359 1.00089 12.0196 0 9.5 0C6.98044 0 4.56408 1.00089 2.78249 2.78249C1.00089 4.56408 0 6.98044 0 9.5C0 12.0196 1.00089 14.4359 2.78249 16.2175C4.56408 17.9991 6.98044 19 9.5 19ZM8.01562 12.4688H8.90625V10.0938H8.01562C7.52207 10.0938 7.125 9.69668 7.125 9.20312C7.125 8.70957 7.52207 8.3125 8.01562 8.3125H9.79688C10.2904 8.3125 10.6875 8.70957 10.6875 9.20312V12.4688H10.9844C11.4779 12.4688 11.875 12.8658 11.875 13.3594C11.875 13.8529 11.4779 14.25 10.9844 14.25H8.01562C7.52207 14.25 7.125 13.8529 7.125 13.3594C7.125 12.8658 7.52207 12.4688 8.01562 12.4688ZM9.5 4.75C9.81494 4.75 10.117 4.87511 10.3397 5.09781C10.5624 5.32051 10.6875 5.62256 10.6875 5.9375C10.6875 6.25244 10.5624 6.55449 10.3397 6.77719C10.117 6.99989 9.81494 7.125 9.5 7.125C9.18506 7.125 8.88301 6.99989 8.66031 6.77719C8.43761 6.55449 8.3125 6.25244 8.3125 5.9375C8.3125 5.62256 8.43761 5.32051 8.66031 5.09781C8.88301 4.87511 9.18506 4.75 9.5 4.75Z" fill="#FAFAFA"/>
</svg>
