<svg width="16" height="16" viewBox="0 0 16 16" fill="none" xmlns="http://www.w3.org/2000/svg">
<g clip-path="url(#clip0_18_14)">
<path d="M16 7.5C16 11.0906 12.4187 14 7.99995 14C6.84058 14 5.74057 13.8 4.74682 13.4406C4.37495 13.7125 3.7687 14.0844 3.04995 14.3969C2.29995 14.7219 1.39683 15 0.49995 15C0.296825 15 0.115575 14.8781 0.0374502 14.6906C-0.0406748 14.5031 0.00307515 14.2906 0.1437 14.1469L0.153075 14.1375C0.16245 14.1281 0.17495 14.1156 0.1937 14.0938C0.228075 14.0562 0.2812 13.9969 0.346825 13.9156C0.47495 13.7594 0.646825 13.5281 0.821825 13.2406C1.13433 12.7219 1.4312 12.0406 1.49058 11.275C0.553075 10.2125 -4.98406e-05 8.90938 -4.98406e-05 7.5C-4.98406e-05 3.90937 3.5812 1 7.99995 1C12.4187 1 16 3.90937 16 7.5Z" fill="#261A00"/>
<path d="M6.88889 6C6.88889 5.44844 7.2875 5 7.77778 5H8.22222C8.7125 5 9.11111 5.44844 9.11111 6V6.05625C9.11111 6.39688 8.95694 6.71406 8.70278 6.89687L8.11667 7.32031C7.76667 7.57344 7.55556 8.00938 7.55556 8.47656V8.5C7.55556 8.77656 7.75417 9 8 9C8.24583 9 8.44444 8.77656 8.44444 8.5V8.47813C8.44444 8.35 8.50278 8.23125 8.59722 8.1625L9.18333 7.73906C9.69167 7.37031 10 6.7375 10 6.05625V6C10 4.89531 9.20417 4 8.22222 4H7.77778C6.79583 4 6 4.89531 6 6C6 6.27656 6.19861 6.5 6.44444 6.5C6.69028 6.5 6.88889 6.27656 6.88889 6ZM8 11C8.14734 11 8.28865 10.9342 8.39284 10.8169C8.49702 10.6997 8.55556 10.5408 8.55556 10.375C8.55556 10.2092 8.49702 10.0503 8.39284 9.93306C8.28865 9.81585 8.14734 9.75 8 9.75C7.85266 9.75 7.71135 9.81585 7.60716 9.93306C7.50298 10.0503 7.44444 10.2092 7.44444 10.375C7.44444 10.5408 7.50298 10.6997 7.60716 10.8169C7.71135 10.9342 7.85266 11 8 11Z" fill="white"/>
</g>
<defs>
<clipPath id="clip0_18_14">
<rect width="16" height="16" fill="white"/>
</clipPath>
</defs>
</svg>
