<svg width="103" height="74" viewBox="0 0 103 74" fill="none" xmlns="http://www.w3.org/2000/svg">
<g clip-path="url(#clip0_13_82)">
<path d="M50.3779 60.3154V60.2656C50.3779 59.8477 50.4229 59.4688 50.5127 59.1289C50.6045 58.7871 50.7236 58.4883 50.8701 58.2324C51.0166 57.9746 51.1729 57.7617 51.3389 57.5938C51.5068 57.4238 51.668 57.3018 51.8223 57.2275L51.9629 57.6318C51.8496 57.7158 51.7363 57.832 51.623 57.9805C51.5117 58.1289 51.4092 58.3115 51.3154 58.5283C51.2236 58.7432 51.1494 58.9951 51.0928 59.2842C51.0381 59.5713 51.0107 59.8965 51.0107 60.2598V60.3213C51.0107 60.6846 51.0381 61.0107 51.0928 61.2998C51.1494 61.5869 51.2236 61.8389 51.3154 62.0557C51.4092 62.2725 51.5117 62.4561 51.623 62.6064C51.7363 62.7588 51.8496 62.8799 51.9629 62.9697L51.8223 63.3564C51.668 63.2803 51.5068 63.1572 51.3389 62.9873C51.1729 62.8193 51.0166 62.6064 50.8701 62.3486C50.7236 62.0928 50.6045 61.7949 50.5127 61.4551C50.4229 61.1133 50.3779 60.7334 50.3779 60.3154ZM55.1855 61.417V62H53.0439V61.417H55.1855ZM53.249 57.7344V62H52.5137V57.7344H53.249ZM55.5488 60.4502V60.3828C55.5488 60.1543 55.582 59.9424 55.6484 59.7471C55.7148 59.5498 55.8105 59.3789 55.9355 59.2344C56.0625 59.0879 56.2168 58.9746 56.3984 58.8945C56.582 58.8125 56.7891 58.7715 57.0195 58.7715C57.252 58.7715 57.459 58.8125 57.6406 58.8945C57.8242 58.9746 57.9795 59.0879 58.1064 59.2344C58.2334 59.3789 58.3301 59.5498 58.3965 59.7471C58.4629 59.9424 58.4961 60.1543 58.4961 60.3828V60.4502C58.4961 60.6787 58.4629 60.8906 58.3965 61.0859C58.3301 61.2812 58.2334 61.4521 58.1064 61.5986C57.9795 61.7432 57.8252 61.8564 57.6436 61.9385C57.4619 62.0186 57.2559 62.0586 57.0254 62.0586C56.793 62.0586 56.585 62.0186 56.4014 61.9385C56.2197 61.8564 56.0654 61.7432 55.9385 61.5986C55.8115 61.4521 55.7148 61.2812 55.6484 61.0859C55.582 60.8906 55.5488 60.6787 55.5488 60.4502ZM56.2549 60.3828V60.4502C56.2549 60.5928 56.2695 60.7275 56.2988 60.8545C56.3281 60.9814 56.374 61.0928 56.4365 61.1885C56.499 61.2842 56.5791 61.3594 56.6768 61.4141C56.7744 61.4688 56.8906 61.4961 57.0254 61.4961C57.1562 61.4961 57.2695 61.4688 57.3652 61.4141C57.4629 61.3594 57.543 61.2842 57.6055 61.1885C57.668 61.0928 57.7139 60.9814 57.7432 60.8545C57.7744 60.7275 57.79 60.5928 57.79 60.4502V60.3828C57.79 60.2422 57.7744 60.1094 57.7432 59.9844C57.7139 59.8574 57.667 59.7451 57.6025 59.6475C57.54 59.5498 57.46 59.4736 57.3623 59.4189C57.2666 59.3623 57.1523 59.334 57.0195 59.334C56.8867 59.334 56.7715 59.3623 56.6738 59.4189C56.5781 59.4736 56.499 59.5498 56.4365 59.6475C56.374 59.7451 56.3281 59.8574 56.2988 59.9844C56.2695 60.1094 56.2549 60.2422 56.2549 60.3828ZM61.1182 58.8301H61.7598V61.9121C61.7598 62.1973 61.6992 62.4395 61.5781 62.6387C61.457 62.8379 61.2881 62.9893 61.0713 63.0928C60.8545 63.1982 60.6035 63.251 60.3184 63.251C60.1973 63.251 60.0625 63.2334 59.9141 63.1982C59.7676 63.1631 59.625 63.1064 59.4863 63.0283C59.3496 62.9521 59.2354 62.8516 59.1436 62.7266L59.4746 62.3105C59.5879 62.4453 59.7129 62.5439 59.8496 62.6064C59.9863 62.6689 60.1299 62.7002 60.2803 62.7002C60.4424 62.7002 60.5801 62.6699 60.6934 62.6094C60.8086 62.5508 60.8975 62.4639 60.96 62.3486C61.0225 62.2334 61.0537 62.0928 61.0537 61.9268V59.5479L61.1182 58.8301ZM58.9648 60.4502V60.3887C58.9648 60.1484 58.9941 59.9297 59.0527 59.7324C59.1113 59.5332 59.1953 59.3623 59.3047 59.2197C59.4141 59.0752 59.5469 58.9648 59.7031 58.8887C59.8594 58.8105 60.0361 58.7715 60.2334 58.7715C60.4385 58.7715 60.6133 58.8086 60.7578 58.8828C60.9043 58.957 61.0264 59.0635 61.124 59.2021C61.2217 59.3389 61.2979 59.5029 61.3525 59.6943C61.4092 59.8838 61.4512 60.0947 61.4785 60.3271V60.5234C61.4531 60.75 61.4102 60.957 61.3496 61.1445C61.2891 61.332 61.209 61.4941 61.1094 61.6309C61.0098 61.7676 60.8867 61.873 60.7402 61.9473C60.5957 62.0215 60.4248 62.0586 60.2275 62.0586C60.0342 62.0586 59.8594 62.0186 59.7031 61.9385C59.5488 61.8584 59.416 61.7461 59.3047 61.6016C59.1953 61.457 59.1113 61.2871 59.0527 61.0918C58.9941 60.8945 58.9648 60.6807 58.9648 60.4502ZM59.6709 60.3887V60.4502C59.6709 60.5947 59.6846 60.7295 59.7119 60.8545C59.7412 60.9795 59.7852 61.0898 59.8438 61.1855C59.9043 61.2793 59.9805 61.3535 60.0723 61.4082C60.166 61.4609 60.2764 61.4873 60.4033 61.4873C60.5693 61.4873 60.7051 61.4521 60.8105 61.3818C60.918 61.3115 61 61.2168 61.0566 61.0977C61.1152 60.9766 61.1562 60.8418 61.1797 60.6934V60.1631C61.168 60.0479 61.1436 59.9404 61.1064 59.8408C61.0713 59.7412 61.0234 59.6543 60.9629 59.5801C60.9023 59.5039 60.8262 59.4453 60.7344 59.4043C60.6426 59.3613 60.5342 59.3398 60.4092 59.3398C60.2822 59.3398 60.1719 59.3672 60.0781 59.4219C59.9844 59.4766 59.9072 59.5518 59.8467 59.6475C59.7881 59.7432 59.7441 59.8545 59.7148 59.9814C59.6855 60.1084 59.6709 60.2441 59.6709 60.3887ZM62.3574 60.4502V60.3828C62.3574 60.1543 62.3906 59.9424 62.457 59.7471C62.5234 59.5498 62.6191 59.3789 62.7441 59.2344C62.8711 59.0879 63.0254 58.9746 63.207 58.8945C63.3906 58.8125 63.5977 58.7715 63.8281 58.7715C64.0605 58.7715 64.2676 58.8125 64.4492 58.8945C64.6328 58.9746 64.7881 59.0879 64.915 59.2344C65.042 59.3789 65.1387 59.5498 65.2051 59.7471C65.2715 59.9424 65.3047 60.1543 65.3047 60.3828V60.4502C65.3047 60.6787 65.2715 60.8906 65.2051 61.0859C65.1387 61.2812 65.042 61.4521 64.915 61.5986C64.7881 61.7432 64.6338 61.8564 64.4521 61.9385C64.2705 62.0186 64.0645 62.0586 63.834 62.0586C63.6016 62.0586 63.3936 62.0186 63.21 61.9385C63.0283 61.8564 62.874 61.7432 62.7471 61.5986C62.6201 61.4521 62.5234 61.2812 62.457 61.0859C62.3906 60.8906 62.3574 60.6787 62.3574 60.4502ZM63.0635 60.3828V60.4502C63.0635 60.5928 63.0781 60.7275 63.1074 60.8545C63.1367 60.9814 63.1826 61.0928 63.2451 61.1885C63.3076 61.2842 63.3877 61.3594 63.4854 61.4141C63.583 61.4688 63.6992 61.4961 63.834 61.4961C63.9648 61.4961 64.0781 61.4688 64.1738 61.4141C64.2715 61.3594 64.3516 61.2842 64.4141 61.1885C64.4766 61.0928 64.5225 60.9814 64.5518 60.8545C64.583 60.7275 64.5986 60.5928 64.5986 60.4502V60.3828C64.5986 60.2422 64.583 60.1094 64.5518 59.9844C64.5225 59.8574 64.4756 59.7451 64.4111 59.6475C64.3486 59.5498 64.2686 59.4736 64.1709 59.4189C64.0752 59.3623 63.9609 59.334 63.8281 59.334C63.6953 59.334 63.5801 59.3623 63.4824 59.4189C63.3867 59.4736 63.3076 59.5498 63.2451 59.6475C63.1826 59.7451 63.1367 59.8574 63.1074 59.9844C63.0781 60.1094 63.0635 60.2422 63.0635 60.3828ZM69.0811 60.4092H67.9707V59.8262H69.0811C69.2744 59.8262 69.4307 59.7949 69.5498 59.7324C69.6689 59.6699 69.7559 59.584 69.8105 59.4746C69.8672 59.3633 69.8955 59.2363 69.8955 59.0938C69.8955 58.959 69.8672 58.833 69.8105 58.7158C69.7559 58.5967 69.6689 58.501 69.5498 58.4287C69.4307 58.3564 69.2744 58.3203 69.0811 58.3203H68.1963V62H67.4609V57.7344H69.0811C69.4111 57.7344 69.6914 57.793 69.9219 57.9102C70.1543 58.0254 70.3311 58.1855 70.4521 58.3906C70.5732 58.5938 70.6338 58.8262 70.6338 59.0879C70.6338 59.3633 70.5732 59.5996 70.4521 59.7969C70.3311 59.9941 70.1543 60.1455 69.9219 60.251C69.6914 60.3564 69.4111 60.4092 69.0811 60.4092ZM71.9316 59.4336V62H71.2256V58.8301H71.8994L71.9316 59.4336ZM72.9014 58.8096L72.8955 59.4658C72.8525 59.458 72.8057 59.4521 72.7549 59.4482C72.7061 59.4443 72.6572 59.4424 72.6084 59.4424C72.4873 59.4424 72.3809 59.46 72.2891 59.4951C72.1973 59.5283 72.1201 59.5771 72.0576 59.6416C71.9971 59.7041 71.9502 59.7803 71.917 59.8701C71.8838 59.96 71.8643 60.0605 71.8584 60.1719L71.6973 60.1836C71.6973 59.9844 71.7168 59.7998 71.7559 59.6299C71.7949 59.46 71.8535 59.3105 71.9316 59.1816C72.0117 59.0527 72.1113 58.9521 72.2305 58.8799C72.3516 58.8076 72.4912 58.7715 72.6494 58.7715C72.6924 58.7715 72.7383 58.7754 72.7871 58.7832C72.8379 58.791 72.876 58.7998 72.9014 58.8096ZM73.1328 60.4502V60.3828C73.1328 60.1543 73.166 59.9424 73.2324 59.7471C73.2988 59.5498 73.3945 59.3789 73.5195 59.2344C73.6465 59.0879 73.8008 58.9746 73.9824 58.8945C74.166 58.8125 74.373 58.7715 74.6035 58.7715C74.8359 58.7715 75.043 58.8125 75.2246 58.8945C75.4082 58.9746 75.5635 59.0879 75.6904 59.2344C75.8174 59.3789 75.9141 59.5498 75.9805 59.7471C76.0469 59.9424 76.0801 60.1543 76.0801 60.3828V60.4502C76.0801 60.6787 76.0469 60.8906 75.9805 61.0859C75.9141 61.2812 75.8174 61.4521 75.6904 61.5986C75.5635 61.7432 75.4092 61.8564 75.2275 61.9385C75.0459 62.0186 74.8398 62.0586 74.6094 62.0586C74.377 62.0586 74.1689 62.0186 73.9854 61.9385C73.8037 61.8564 73.6494 61.7432 73.5225 61.5986C73.3955 61.4521 73.2988 61.2812 73.2324 61.0859C73.166 60.8906 73.1328 60.6787 73.1328 60.4502ZM73.8389 60.3828V60.4502C73.8389 60.5928 73.8535 60.7275 73.8828 60.8545C73.9121 60.9814 73.958 61.0928 74.0205 61.1885C74.083 61.2842 74.1631 61.3594 74.2607 61.4141C74.3584 61.4688 74.4746 61.4961 74.6094 61.4961C74.7402 61.4961 74.8535 61.4688 74.9492 61.4141C75.0469 61.3594 75.127 61.2842 75.1895 61.1885C75.252 61.0928 75.2979 60.9814 75.3271 60.8545C75.3584 60.7275 75.374 60.5928 75.374 60.4502V60.3828C75.374 60.2422 75.3584 60.1094 75.3271 59.9844C75.2979 59.8574 75.251 59.7451 75.1865 59.6475C75.124 59.5498 75.0439 59.4736 74.9463 59.4189C74.8506 59.3623 74.7363 59.334 74.6035 59.334C74.4707 59.334 74.3555 59.3623 74.2578 59.4189C74.1621 59.4736 74.083 59.5498 74.0205 59.6475C73.958 59.7451 73.9121 59.8574 73.8828 59.9844C73.8535 60.1094 73.8389 60.2422 73.8389 60.3828ZM77.6562 61.4404L78.4326 58.8301H79.165L78.0635 62H77.6064L77.6562 61.4404ZM77.0615 58.8301L77.8525 61.4521L77.8906 62H77.4336L76.3262 58.8301H77.0615ZM80.3574 58.8301V62H79.6484V58.8301H80.3574ZM79.6016 57.998C79.6016 57.8906 79.6367 57.8018 79.707 57.7314C79.7793 57.6592 79.8789 57.623 80.0059 57.623C80.1309 57.623 80.2295 57.6592 80.3018 57.7314C80.374 57.8018 80.4102 57.8906 80.4102 57.998C80.4102 58.1035 80.374 58.1914 80.3018 58.2617C80.2295 58.332 80.1309 58.3672 80.0059 58.3672C79.8789 58.3672 79.7793 58.332 79.707 58.2617C79.6367 58.1914 79.6016 58.1035 79.6016 57.998ZM82.9092 61.1416C82.9092 61.0713 82.8916 61.0078 82.8564 60.9512C82.8213 60.8926 82.7539 60.8398 82.6543 60.793C82.5566 60.7461 82.4121 60.7031 82.2207 60.6641C82.0527 60.627 81.8984 60.583 81.7578 60.5322C81.6191 60.4795 81.5 60.416 81.4004 60.3418C81.3008 60.2676 81.2236 60.1797 81.1689 60.0781C81.1143 59.9766 81.0869 59.8594 81.0869 59.7266C81.0869 59.5977 81.1152 59.4756 81.1719 59.3604C81.2285 59.2451 81.3096 59.1436 81.415 59.0557C81.5205 58.9678 81.6484 58.8984 81.7988 58.8477C81.9512 58.7969 82.1211 58.7715 82.3086 58.7715C82.5742 58.7715 82.8018 58.8164 82.9912 58.9062C83.1826 58.9941 83.3291 59.1143 83.4307 59.2666C83.5322 59.417 83.583 59.5869 83.583 59.7764H82.877C82.877 59.6924 82.8555 59.6143 82.8125 59.542C82.7715 59.4678 82.709 59.4082 82.625 59.3633C82.541 59.3164 82.4355 59.293 82.3086 59.293C82.1875 59.293 82.0869 59.3125 82.0068 59.3516C81.9287 59.3887 81.8701 59.4375 81.8311 59.498C81.7939 59.5586 81.7754 59.625 81.7754 59.6973C81.7754 59.75 81.7852 59.7979 81.8047 59.8408C81.8262 59.8818 81.8613 59.9199 81.9102 59.9551C81.959 59.9883 82.0254 60.0195 82.1094 60.0488C82.1953 60.0781 82.3027 60.1064 82.4316 60.1338C82.6738 60.1846 82.8818 60.25 83.0557 60.3301C83.2314 60.4082 83.3662 60.5098 83.46 60.6348C83.5537 60.7578 83.6006 60.9141 83.6006 61.1035C83.6006 61.2441 83.5703 61.373 83.5098 61.4902C83.4512 61.6055 83.3652 61.7061 83.252 61.792C83.1387 61.876 83.0029 61.9414 82.8447 61.9883C82.6885 62.0352 82.5127 62.0586 82.3174 62.0586C82.0303 62.0586 81.7871 62.0078 81.5879 61.9062C81.3887 61.8027 81.2373 61.6709 81.1338 61.5107C81.0322 61.3486 80.9814 61.1807 80.9814 61.0068H81.6641C81.6719 61.1377 81.708 61.2422 81.7725 61.3203C81.8389 61.3965 81.9209 61.4521 82.0186 61.4873C82.1182 61.5205 82.2207 61.5371 82.3262 61.5371C82.4531 61.5371 82.5596 61.5205 82.6455 61.4873C82.7314 61.4521 82.7969 61.4053 82.8418 61.3467C82.8867 61.2861 82.9092 61.2178 82.9092 61.1416ZM84.084 60.4502V60.3828C84.084 60.1543 84.1172 59.9424 84.1836 59.7471C84.25 59.5498 84.3457 59.3789 84.4707 59.2344C84.5977 59.0879 84.752 58.9746 84.9336 58.8945C85.1172 58.8125 85.3242 58.7715 85.5547 58.7715C85.7871 58.7715 85.9941 58.8125 86.1758 58.8945C86.3594 58.9746 86.5146 59.0879 86.6416 59.2344C86.7686 59.3789 86.8652 59.5498 86.9316 59.7471C86.998 59.9424 87.0312 60.1543 87.0312 60.3828V60.4502C87.0312 60.6787 86.998 60.8906 86.9316 61.0859C86.8652 61.2812 86.7686 61.4521 86.6416 61.5986C86.5146 61.7432 86.3604 61.8564 86.1787 61.9385C85.9971 62.0186 85.791 62.0586 85.5605 62.0586C85.3281 62.0586 85.1201 62.0186 84.9365 61.9385C84.7549 61.8564 84.6006 61.7432 84.4736 61.5986C84.3467 61.4521 84.25 61.2812 84.1836 61.0859C84.1172 60.8906 84.084 60.6787 84.084 60.4502ZM84.79 60.3828V60.4502C84.79 60.5928 84.8047 60.7275 84.834 60.8545C84.8633 60.9814 84.9092 61.0928 84.9717 61.1885C85.0342 61.2842 85.1143 61.3594 85.2119 61.4141C85.3096 61.4688 85.4258 61.4961 85.5605 61.4961C85.6914 61.4961 85.8047 61.4688 85.9004 61.4141C85.998 61.3594 86.0781 61.2842 86.1406 61.1885C86.2031 61.0928 86.249 60.9814 86.2783 60.8545C86.3096 60.7275 86.3252 60.5928 86.3252 60.4502V60.3828C86.3252 60.2422 86.3096 60.1094 86.2783 59.9844C86.249 59.8574 86.2021 59.7451 86.1377 59.6475C86.0752 59.5498 85.9951 59.4736 85.8975 59.4189C85.8018 59.3623 85.6875 59.334 85.5547 59.334C85.4219 59.334 85.3066 59.3623 85.209 59.4189C85.1133 59.4736 85.0342 59.5498 84.9717 59.6475C84.9092 59.7451 84.8633 59.8574 84.834 59.9844C84.8047 60.1094 84.79 60.2422 84.79 60.3828ZM85.1855 58.3818L85.7568 57.5H86.5537L85.7568 58.3818H85.1855ZM88.332 59.4336V62H87.626V58.8301H88.2998L88.332 59.4336ZM89.3018 58.8096L89.2959 59.4658C89.2529 59.458 89.2061 59.4521 89.1553 59.4482C89.1064 59.4443 89.0576 59.4424 89.0088 59.4424C88.8877 59.4424 88.7812 59.46 88.6895 59.4951C88.5977 59.5283 88.5205 59.5771 88.458 59.6416C88.3975 59.7041 88.3506 59.7803 88.3174 59.8701C88.2842 59.96 88.2646 60.0605 88.2588 60.1719L88.0977 60.1836C88.0977 59.9844 88.1172 59.7998 88.1562 59.6299C88.1953 59.46 88.2539 59.3105 88.332 59.1816C88.4121 59.0527 88.5117 58.9521 88.6309 58.8799C88.752 58.8076 88.8916 58.7715 89.0498 58.7715C89.0928 58.7715 89.1387 58.7754 89.1875 58.7832C89.2383 58.791 89.2764 58.7998 89.3018 58.8096ZM90.5 58.8301V62H89.791V58.8301H90.5ZM89.7441 57.998C89.7441 57.8906 89.7793 57.8018 89.8496 57.7314C89.9219 57.6592 90.0215 57.623 90.1484 57.623C90.2734 57.623 90.3721 57.6592 90.4443 57.7314C90.5166 57.8018 90.5527 57.8906 90.5527 57.998C90.5527 58.1035 90.5166 58.1914 90.4443 58.2617C90.3721 58.332 90.2734 58.3672 90.1484 58.3672C90.0215 58.3672 89.9219 58.332 89.8496 58.2617C89.7793 58.1914 89.7441 58.1035 89.7441 57.998ZM93.0605 61.3643V59.8525C93.0605 59.7393 93.04 59.6416 92.999 59.5596C92.958 59.4775 92.8955 59.4141 92.8115 59.3691C92.7295 59.3242 92.626 59.3018 92.501 59.3018C92.3857 59.3018 92.2861 59.3213 92.2021 59.3604C92.1182 59.3994 92.0527 59.4521 92.0059 59.5186C91.959 59.585 91.9355 59.6602 91.9355 59.7441H91.2324C91.2324 59.6191 91.2627 59.498 91.3232 59.3809C91.3838 59.2637 91.4717 59.1592 91.5869 59.0674C91.7021 58.9756 91.8398 58.9033 92 58.8506C92.1602 58.7979 92.3398 58.7715 92.5391 58.7715C92.7773 58.7715 92.9883 58.8115 93.1719 58.8916C93.3574 58.9717 93.5029 59.0928 93.6084 59.2549C93.7158 59.415 93.7695 59.6162 93.7695 59.8584V61.2676C93.7695 61.4121 93.7793 61.542 93.7988 61.6572C93.8203 61.7705 93.8506 61.8691 93.8896 61.9531V62H93.166C93.1328 61.9238 93.1064 61.8271 93.0869 61.71C93.0693 61.5908 93.0605 61.4756 93.0605 61.3643ZM93.1631 60.0723L93.1689 60.5088H92.6621C92.5312 60.5088 92.416 60.5215 92.3164 60.5469C92.2168 60.5703 92.1338 60.6055 92.0674 60.6523C92.001 60.6992 91.9512 60.7559 91.918 60.8223C91.8848 60.8887 91.8682 60.9639 91.8682 61.0479C91.8682 61.1318 91.8877 61.209 91.9268 61.2793C91.9658 61.3477 92.0225 61.4014 92.0967 61.4404C92.1729 61.4795 92.2646 61.499 92.3721 61.499C92.5166 61.499 92.6426 61.4697 92.75 61.4111C92.8594 61.3506 92.9453 61.2773 93.0078 61.1914C93.0703 61.1035 93.1035 61.0205 93.1074 60.9424L93.3359 61.2559C93.3125 61.3359 93.2725 61.4219 93.2158 61.5137C93.1592 61.6055 93.085 61.6934 92.9932 61.7773C92.9033 61.8594 92.7949 61.9268 92.668 61.9795C92.543 62.0322 92.3984 62.0586 92.2344 62.0586C92.0273 62.0586 91.8428 62.0176 91.6807 61.9355C91.5186 61.8516 91.3916 61.7393 91.2998 61.5986C91.208 61.4561 91.1621 61.2949 91.1621 61.1152C91.1621 60.9473 91.1934 60.7988 91.2559 60.6699C91.3203 60.5391 91.4141 60.4297 91.5371 60.3418C91.6621 60.2539 91.8145 60.1875 91.9941 60.1426C92.1738 60.0957 92.3789 60.0723 92.6094 60.0723H93.1631ZM95.8701 60.2656V60.3154C95.8701 60.7275 95.8232 61.1035 95.7295 61.4434C95.6377 61.7832 95.5176 62.082 95.3691 62.3398C95.2227 62.5977 95.0635 62.8125 94.8916 62.9844C94.7217 63.1562 94.5586 63.2803 94.4023 63.3564L94.2588 62.9697C94.3721 62.8838 94.4844 62.7656 94.5957 62.6152C94.709 62.4668 94.8115 62.2822 94.9033 62.0615C94.9971 61.8428 95.0713 61.5889 95.126 61.2998C95.1826 61.0107 95.2109 60.6846 95.2109 60.3213V60.2598C95.2109 59.8965 95.1816 59.5703 95.123 59.2812C95.0664 58.9902 94.9902 58.7363 94.8945 58.5195C94.7988 58.3008 94.6953 58.1162 94.584 57.9658C94.4727 57.8154 94.3643 57.6982 94.2588 57.6143L94.4023 57.2275C94.5586 57.3018 94.7217 57.4248 94.8916 57.5967C95.0635 57.7686 95.2227 57.9844 95.3691 58.2441C95.5176 58.502 95.6377 58.8008 95.7295 59.1406C95.8232 59.4805 95.8701 59.8555 95.8701 60.2656Z" fill="#F9C65D"/>
<path d="M7.78516 51.6318H5.22852L5.21484 50.2236H7.36133C7.73958 50.2236 8.04948 50.1758 8.29102 50.0801C8.53255 49.9798 8.71257 49.8363 8.83105 49.6494C8.9541 49.458 9.01562 49.2256 9.01562 48.9521C9.01562 48.6423 8.95638 48.3916 8.83789 48.2002C8.72396 48.0088 8.54395 47.8698 8.29785 47.7832C8.05632 47.6966 7.74414 47.6533 7.36133 47.6533H5.93945V56H3.88867V46.0469H7.36133C7.9401 46.0469 8.45736 46.1016 8.91309 46.2109C9.37337 46.3203 9.76302 46.4867 10.082 46.71C10.401 46.9333 10.6449 47.2158 10.8135 47.5576C10.9821 47.8949 11.0664 48.2959 11.0664 48.7607C11.0664 49.1709 10.973 49.5492 10.7861 49.8955C10.6038 50.2419 10.3145 50.5244 9.91797 50.7432C9.52604 50.9619 9.01335 51.0827 8.37988 51.1055L7.78516 51.6318ZM7.69629 56H4.66797L5.46777 54.4004H7.69629C8.05632 54.4004 8.35026 54.3434 8.57812 54.2295C8.80599 54.111 8.97461 53.9515 9.08398 53.751C9.19336 53.5505 9.24805 53.3203 9.24805 53.0605C9.24805 52.7689 9.19792 52.516 9.09766 52.3018C9.00195 52.0876 8.84701 51.9235 8.63281 51.8096C8.41862 51.6911 8.13607 51.6318 7.78516 51.6318H5.80957L5.82324 50.2236H8.28418L8.75586 50.7773C9.36198 50.7682 9.84961 50.8753 10.2188 51.0986C10.5924 51.3174 10.8636 51.6022 11.0322 51.9531C11.2054 52.304 11.292 52.68 11.292 53.0811C11.292 53.7191 11.153 54.2568 10.875 54.6943C10.597 55.1273 10.1891 55.4531 9.65137 55.6719C9.11816 55.8906 8.46647 56 7.69629 56ZM14.7852 48.6035V56H12.8096V48.6035H14.7852ZM12.6865 46.6758C12.6865 46.3887 12.7868 46.1517 12.9873 45.9648C13.1878 45.778 13.4567 45.6846 13.7939 45.6846C14.1266 45.6846 14.3932 45.778 14.5938 45.9648C14.7988 46.1517 14.9014 46.3887 14.9014 46.6758C14.9014 46.9629 14.7988 47.1999 14.5938 47.3867C14.3932 47.5736 14.1266 47.667 13.7939 47.667C13.4567 47.667 13.1878 47.5736 12.9873 47.3867C12.7868 47.1999 12.6865 46.9629 12.6865 46.6758ZM16.4121 45.5H18.3809V54.3047L18.1826 56H16.4121V45.5ZM23.0635 52.2266V52.3701C23.0635 52.9215 23.0042 53.4274 22.8857 53.8877C22.7718 54.348 22.5941 54.7467 22.3525 55.084C22.111 55.4167 21.8102 55.6764 21.4502 55.8633C21.0947 56.0456 20.6755 56.1367 20.1924 56.1367C19.7412 56.1367 19.3493 56.0456 19.0166 55.8633C18.6885 55.681 18.4128 55.4235 18.1895 55.0908C17.9661 54.7581 17.7861 54.3685 17.6494 53.9219C17.5127 53.4753 17.4102 52.9876 17.3418 52.459V52.1445C17.4102 51.6159 17.5127 51.1283 17.6494 50.6816C17.7861 50.235 17.9661 49.8454 18.1895 49.5127C18.4128 49.18 18.6885 48.9225 19.0166 48.7402C19.3447 48.5579 19.7321 48.4668 20.1787 48.4668C20.6663 48.4668 21.0902 48.5602 21.4502 48.7471C21.8148 48.9294 22.1156 49.1891 22.3525 49.5264C22.5941 49.859 22.7718 50.2555 22.8857 50.7158C23.0042 51.1715 23.0635 51.6751 23.0635 52.2266ZM21.0947 52.3701V52.2266C21.0947 51.9258 21.0719 51.6432 21.0264 51.3789C20.9854 51.11 20.9124 50.8753 20.8076 50.6748C20.7028 50.4697 20.5592 50.3079 20.377 50.1895C20.1992 50.071 19.9691 50.0117 19.6865 50.0117C19.4176 50.0117 19.1898 50.0573 19.0029 50.1484C18.8161 50.2396 18.6611 50.3672 18.5381 50.5312C18.4196 50.6953 18.3307 50.8913 18.2715 51.1191C18.2122 51.3424 18.1758 51.5885 18.1621 51.8574V52.7529C18.1758 53.113 18.235 53.432 18.3398 53.71C18.4492 53.9834 18.6133 54.1999 18.832 54.3594C19.0553 54.5143 19.3447 54.5918 19.7002 54.5918C19.9782 54.5918 20.2083 54.5371 20.3906 54.4277C20.5729 54.3184 20.7142 54.1634 20.8145 53.9629C20.9193 53.7624 20.9922 53.5277 21.0332 53.2588C21.0742 52.9854 21.0947 52.6891 21.0947 52.3701ZM26.3652 45.5V56H24.3896V45.5H26.3652ZM30.0703 48.6035V56H28.0947V48.6035H30.0703ZM27.9717 46.6758C27.9717 46.3887 28.0719 46.1517 28.2725 45.9648C28.473 45.778 28.7419 45.6846 29.0791 45.6846C29.4118 45.6846 29.6784 45.778 29.8789 45.9648C30.084 46.1517 30.1865 46.3887 30.1865 46.6758C30.1865 46.9629 30.084 47.1999 29.8789 47.3867C29.6784 47.5736 29.4118 47.667 29.0791 47.667C28.7419 47.667 28.473 47.5736 28.2725 47.3867C28.0719 47.1999 27.9717 46.9629 27.9717 46.6758ZM31.3828 52.377V52.2334C31.3828 51.6911 31.4603 51.1921 31.6152 50.7363C31.7702 50.276 31.9958 49.8773 32.292 49.54C32.5882 49.2028 32.9528 48.9408 33.3857 48.7539C33.8187 48.5625 34.3154 48.4668 34.876 48.4668C35.4365 48.4668 35.9355 48.5625 36.373 48.7539C36.8105 48.9408 37.1774 49.2028 37.4736 49.54C37.7744 49.8773 38.0023 50.276 38.1572 50.7363C38.3122 51.1921 38.3896 51.6911 38.3896 52.2334V52.377C38.3896 52.9147 38.3122 53.4137 38.1572 53.874C38.0023 54.3298 37.7744 54.7285 37.4736 55.0703C37.1774 55.4076 36.8128 55.6696 36.3799 55.8564C35.9469 56.0433 35.4502 56.1367 34.8896 56.1367C34.3291 56.1367 33.8301 56.0433 33.3926 55.8564C32.9596 55.6696 32.5928 55.4076 32.292 55.0703C31.9958 54.7285 31.7702 54.3298 31.6152 53.874C31.4603 53.4137 31.3828 52.9147 31.3828 52.377ZM33.3516 52.2334V52.377C33.3516 52.6868 33.3789 52.9762 33.4336 53.2451C33.4883 53.514 33.5749 53.751 33.6934 53.9561C33.8164 54.1566 33.9759 54.3138 34.1719 54.4277C34.3678 54.5417 34.6071 54.5986 34.8896 54.5986C35.1631 54.5986 35.3978 54.5417 35.5938 54.4277C35.7897 54.3138 35.9469 54.1566 36.0654 53.9561C36.1839 53.751 36.2705 53.514 36.3252 53.2451C36.3844 52.9762 36.4141 52.6868 36.4141 52.377V52.2334C36.4141 51.9326 36.3844 51.6501 36.3252 51.3857C36.2705 51.1169 36.1816 50.8799 36.0586 50.6748C35.9401 50.4652 35.7829 50.3011 35.5869 50.1826C35.391 50.0641 35.154 50.0049 34.876 50.0049C34.598 50.0049 34.361 50.0641 34.165 50.1826C33.9736 50.3011 33.8164 50.4652 33.6934 50.6748C33.5749 50.8799 33.4883 51.1169 33.4336 51.3857C33.3789 51.6501 33.3516 51.9326 33.3516 52.2334ZM43.2227 48.6035V49.998H38.916V48.6035H43.2227ZM39.9824 46.7783H41.9512V53.7715C41.9512 53.9857 41.9785 54.1497 42.0332 54.2637C42.0924 54.3776 42.179 54.4574 42.293 54.5029C42.4069 54.5439 42.5505 54.5645 42.7236 54.5645C42.8467 54.5645 42.9561 54.5599 43.0518 54.5508C43.152 54.5371 43.2363 54.5234 43.3047 54.5098L43.3115 55.959C43.1429 56.0137 42.9606 56.057 42.7646 56.0889C42.5687 56.1208 42.3522 56.1367 42.1152 56.1367C41.6823 56.1367 41.304 56.0661 40.9805 55.9248C40.6615 55.779 40.4154 55.5465 40.2422 55.2275C40.069 54.9085 39.9824 54.4893 39.9824 53.9697V46.7783ZM47.748 56.1367C47.1738 56.1367 46.6589 56.0456 46.2031 55.8633C45.7474 55.6764 45.36 55.4189 45.041 55.0908C44.7266 54.7627 44.485 54.3822 44.3164 53.9492C44.1478 53.5117 44.0635 53.0469 44.0635 52.5547V52.2812C44.0635 51.7207 44.1432 51.208 44.3027 50.7432C44.4622 50.2783 44.6901 49.875 44.9863 49.5332C45.2871 49.1914 45.6517 48.9294 46.0801 48.7471C46.5085 48.5602 46.9915 48.4668 47.5293 48.4668C48.0534 48.4668 48.5182 48.5534 48.9238 48.7266C49.3294 48.8997 49.6689 49.1458 49.9424 49.4648C50.2204 49.7839 50.43 50.1667 50.5713 50.6133C50.7126 51.0553 50.7832 51.5475 50.7832 52.0898V52.9102H44.9043V51.5977H48.8486V51.4473C48.8486 51.1738 48.7985 50.93 48.6982 50.7158C48.6025 50.4971 48.4567 50.3239 48.2607 50.1963C48.0648 50.0687 47.8141 50.0049 47.5088 50.0049C47.249 50.0049 47.0257 50.0618 46.8389 50.1758C46.652 50.2897 46.4993 50.4492 46.3809 50.6543C46.2669 50.8594 46.1803 51.1009 46.1211 51.3789C46.0664 51.6523 46.0391 51.9531 46.0391 52.2812V52.5547C46.0391 52.8509 46.0801 53.1243 46.1621 53.375C46.2487 53.6257 46.3695 53.8421 46.5244 54.0244C46.6839 54.2067 46.8753 54.348 47.0986 54.4482C47.3265 54.5485 47.584 54.5986 47.8711 54.5986C48.2266 54.5986 48.557 54.5303 48.8623 54.3936C49.1722 54.2523 49.4388 54.0404 49.6621 53.7578L50.6191 54.7969C50.4642 55.0202 50.2523 55.2344 49.9834 55.4395C49.7191 55.6445 49.4001 55.8132 49.0264 55.9453C48.6527 56.0729 48.2266 56.1367 47.748 56.1367ZM54.96 54.5986C55.2015 54.5986 55.4157 54.5531 55.6025 54.4619C55.7894 54.3662 55.9352 54.234 56.04 54.0654C56.1494 53.8923 56.2064 53.6895 56.2109 53.457H58.0635C58.0589 53.9766 57.9199 54.4391 57.6465 54.8447C57.373 55.2458 57.0062 55.5625 56.5459 55.7949C56.0856 56.0228 55.5706 56.1367 55.001 56.1367C54.4268 56.1367 53.9255 56.041 53.4971 55.8496C53.0732 55.6582 52.7201 55.3939 52.4375 55.0566C52.1549 54.7148 51.943 54.3184 51.8018 53.8672C51.6605 53.4115 51.5898 52.9238 51.5898 52.4043V52.2061C51.5898 51.682 51.6605 51.1943 51.8018 50.7432C51.943 50.2874 52.1549 49.891 52.4375 49.5537C52.7201 49.2119 53.0732 48.9453 53.4971 48.7539C53.9209 48.5625 54.4176 48.4668 54.9873 48.4668C55.5934 48.4668 56.1243 48.583 56.5801 48.8154C57.0404 49.0479 57.4004 49.3805 57.6602 49.8135C57.9245 50.2419 58.0589 50.75 58.0635 51.3379H56.2109C56.2064 51.0918 56.154 50.8685 56.0537 50.668C55.958 50.4674 55.8167 50.3079 55.6299 50.1895C55.4476 50.0664 55.222 50.0049 54.9531 50.0049C54.666 50.0049 54.4313 50.0664 54.249 50.1895C54.0667 50.3079 53.9255 50.472 53.8252 50.6816C53.7249 50.8867 53.6543 51.1214 53.6133 51.3857C53.5768 51.6455 53.5586 51.9189 53.5586 52.2061V52.4043C53.5586 52.6914 53.5768 52.9671 53.6133 53.2314C53.6497 53.4958 53.7181 53.7305 53.8184 53.9355C53.9232 54.1406 54.0667 54.3024 54.249 54.4209C54.4313 54.5394 54.6683 54.5986 54.96 54.5986ZM63.1973 54.332V51.0371C63.1973 50.8001 63.1585 50.5973 63.0811 50.4287C63.0036 50.2555 62.8828 50.1211 62.7188 50.0254C62.5592 49.9297 62.3519 49.8818 62.0967 49.8818C61.8779 49.8818 61.6888 49.9206 61.5293 49.998C61.3698 50.071 61.2467 50.1781 61.1602 50.3193C61.0736 50.4561 61.0303 50.6178 61.0303 50.8047H59.0615C59.0615 50.4902 59.1344 50.1917 59.2803 49.9092C59.4261 49.6266 59.638 49.3783 59.916 49.1641C60.194 48.9453 60.5244 48.7744 60.9072 48.6514C61.2946 48.5283 61.7275 48.4668 62.2061 48.4668C62.7803 48.4668 63.2907 48.5625 63.7373 48.7539C64.1839 48.9453 64.5348 49.2324 64.79 49.6152C65.0498 49.998 65.1797 50.4766 65.1797 51.0508V54.2158C65.1797 54.6214 65.2048 54.9541 65.2549 55.2139C65.305 55.4691 65.3779 55.6924 65.4736 55.8838V56H63.4844C63.3887 55.7995 63.3158 55.5488 63.2656 55.248C63.2201 54.9427 63.1973 54.6374 63.1973 54.332ZM63.457 51.4951L63.4707 52.6094H62.3701C62.1104 52.6094 61.8848 52.639 61.6934 52.6982C61.502 52.7575 61.3447 52.8418 61.2217 52.9512C61.0986 53.056 61.0075 53.179 60.9482 53.3203C60.8936 53.4616 60.8662 53.6165 60.8662 53.7852C60.8662 53.9538 60.9049 54.1064 60.9824 54.2432C61.0599 54.3753 61.1715 54.4801 61.3174 54.5576C61.4632 54.6305 61.6341 54.667 61.8301 54.667C62.1263 54.667 62.3838 54.6077 62.6025 54.4893C62.8213 54.3708 62.9899 54.2249 63.1084 54.0518C63.2314 53.8786 63.2952 53.7145 63.2998 53.5596L63.8193 54.3936C63.7464 54.5804 63.6462 54.7741 63.5186 54.9746C63.3955 55.1751 63.2383 55.3643 63.0469 55.542C62.8555 55.7152 62.6253 55.8587 62.3564 55.9727C62.0876 56.082 61.7686 56.1367 61.3994 56.1367C60.93 56.1367 60.5039 56.0433 60.1211 55.8564C59.7428 55.665 59.4421 55.403 59.2188 55.0703C59 54.7331 58.8906 54.3503 58.8906 53.9219C58.8906 53.5345 58.9635 53.1904 59.1094 52.8896C59.2552 52.5889 59.4694 52.3359 59.752 52.1309C60.0391 51.9212 60.3968 51.764 60.8252 51.6592C61.2536 51.5498 61.7503 51.4951 62.3154 51.4951H63.457ZM76.9854 54.4004V56H71.6875V54.4004H76.9854ZM72.3574 46.0469V56H70.3066V46.0469H72.3574ZM76.2949 50.1006V51.6592H71.6875V50.1006H76.2949ZM76.9785 46.0469V47.6533H71.6875V46.0469H76.9785ZM81.6816 48.6035V49.998H77.375V48.6035H81.6816ZM78.4414 46.7783H80.4102V53.7715C80.4102 53.9857 80.4375 54.1497 80.4922 54.2637C80.5514 54.3776 80.638 54.4574 80.752 54.5029C80.8659 54.5439 81.0094 54.5645 81.1826 54.5645C81.3057 54.5645 81.415 54.5599 81.5107 54.5508C81.611 54.5371 81.6953 54.5234 81.7637 54.5098L81.7705 55.959C81.6019 56.0137 81.4196 56.057 81.2236 56.0889C81.0277 56.1208 80.8112 56.1367 80.5742 56.1367C80.1413 56.1367 79.763 56.0661 79.4395 55.9248C79.1204 55.779 78.8743 55.5465 78.7012 55.2275C78.528 54.9085 78.4414 54.4893 78.4414 53.9697V46.7783ZM86.207 56.1367C85.6328 56.1367 85.1178 56.0456 84.6621 55.8633C84.2064 55.6764 83.819 55.4189 83.5 55.0908C83.1855 54.7627 82.944 54.3822 82.7754 53.9492C82.6068 53.5117 82.5225 53.0469 82.5225 52.5547V52.2812C82.5225 51.7207 82.6022 51.208 82.7617 50.7432C82.9212 50.2783 83.1491 49.875 83.4453 49.5332C83.7461 49.1914 84.1107 48.9294 84.5391 48.7471C84.9674 48.5602 85.4505 48.4668 85.9883 48.4668C86.5124 48.4668 86.9772 48.5534 87.3828 48.7266C87.7884 48.8997 88.1279 49.1458 88.4014 49.4648C88.6794 49.7839 88.889 50.1667 89.0303 50.6133C89.1715 51.0553 89.2422 51.5475 89.2422 52.0898V52.9102H83.3633V51.5977H87.3076V51.4473C87.3076 51.1738 87.2575 50.93 87.1572 50.7158C87.0615 50.4971 86.9157 50.3239 86.7197 50.1963C86.5238 50.0687 86.2731 50.0049 85.9678 50.0049C85.708 50.0049 85.4847 50.0618 85.2979 50.1758C85.111 50.2897 84.9583 50.4492 84.8398 50.6543C84.7259 50.8594 84.6393 51.1009 84.5801 51.3789C84.5254 51.6523 84.498 51.9531 84.498 52.2812V52.5547C84.498 52.8509 84.5391 53.1243 84.6211 53.375C84.7077 53.6257 84.8285 53.8421 84.9834 54.0244C85.1429 54.2067 85.3343 54.348 85.5576 54.4482C85.7855 54.5485 86.043 54.5986 86.3301 54.5986C86.6855 54.5986 87.016 54.5303 87.3213 54.3936C87.6312 54.2523 87.8978 54.0404 88.1211 53.7578L89.0781 54.7969C88.9232 55.0202 88.7113 55.2344 88.4424 55.4395C88.1781 55.6445 87.859 55.8132 87.4854 55.9453C87.1117 56.0729 86.6855 56.1367 86.207 56.1367ZM93.4189 54.5986C93.6605 54.5986 93.8747 54.5531 94.0615 54.4619C94.2484 54.3662 94.3942 54.234 94.499 54.0654C94.6084 53.8923 94.6654 53.6895 94.6699 53.457H96.5225C96.5179 53.9766 96.3789 54.4391 96.1055 54.8447C95.832 55.2458 95.4652 55.5625 95.0049 55.7949C94.5446 56.0228 94.0296 56.1367 93.46 56.1367C92.8857 56.1367 92.3844 56.041 91.9561 55.8496C91.5322 55.6582 91.179 55.3939 90.8965 55.0566C90.6139 54.7148 90.402 54.3184 90.2607 53.8672C90.1195 53.4115 90.0488 52.9238 90.0488 52.4043V52.2061C90.0488 51.682 90.1195 51.1943 90.2607 50.7432C90.402 50.2874 90.6139 49.891 90.8965 49.5537C91.179 49.2119 91.5322 48.9453 91.9561 48.7539C92.3799 48.5625 92.8766 48.4668 93.4463 48.4668C94.0524 48.4668 94.5833 48.583 95.0391 48.8154C95.4993 49.0479 95.8594 49.3805 96.1191 49.8135C96.3835 50.2419 96.5179 50.75 96.5225 51.3379H94.6699C94.6654 51.0918 94.613 50.8685 94.5127 50.668C94.417 50.4674 94.2757 50.3079 94.0889 50.1895C93.9066 50.0664 93.681 50.0049 93.4121 50.0049C93.125 50.0049 92.8903 50.0664 92.708 50.1895C92.5257 50.3079 92.3844 50.472 92.2842 50.6816C92.1839 50.8867 92.1133 51.1214 92.0723 51.3857C92.0358 51.6455 92.0176 51.9189 92.0176 52.2061V52.4043C92.0176 52.6914 92.0358 52.9671 92.0723 53.2314C92.1087 53.4958 92.1771 53.7305 92.2773 53.9355C92.3822 54.1406 92.5257 54.3024 92.708 54.4209C92.8903 54.5394 93.1273 54.5986 93.4189 54.5986Z" fill="#F9C65D"/>
<path d="M44.2333 40.919C45.1521 41.2382 46.1389 40.5746 46.1389 39.617V7.91451C46.1389 7.5617 46.0028 7.20889 45.7135 6.99048C44.0462 5.68005 40.2181 4 35.25 4C30.954 4 26.9387 5.11723 24.5398 6.02446C23.5785 6.39407 23 7.33489 23 8.35132V39.4574C23 40.457 24.0889 41.1542 25.0502 40.8434C27.7299 39.9614 31.9748 38.945 35.25 38.945C38.1339 38.945 41.9705 40.121 44.2333 40.919ZM50.7667 40.919C53.0295 40.121 56.8661 38.945 59.75 38.945C63.0252 38.945 67.2701 39.9614 69.9498 40.8434C70.9111 41.1626 72 40.457 72 39.4574V8.35132C72 7.33489 71.4215 6.39407 70.4602 6.03286C68.0613 5.11723 64.046 4 59.75 4C54.7819 4 50.9538 5.68005 49.2865 6.99048C49.0057 7.20889 48.8611 7.5617 48.8611 7.91451V39.617C48.8611 40.5746 49.8564 41.2382 50.7667 40.919Z" fill="#F9C65D"/>
</g>
<defs>
<clipPath id="clip0_13_82">
<rect width="103" height="74" fill="white"/>
</clipPath>
</defs>
</svg>
